<svg xmlns="http://www.w3.org/2000/svg" version="1.1" viewBox="-5.0 -10.0 110.0 135.0">
  <!-- Created by Saepul Nahwan from Noun Project -->
  <path d="m81.25 9.375h-62.5c-5.168 0-9.375 4.2031-9.375 9.375v62.5c0 5.1719 4.207 9.375 9.375 9.375h62.5c5.168 0 9.375-4.2031 9.375-9.375v-62.5c0-5.1719-4.207-9.375-9.375-9.375zm-40.625 50v-18.75h18.75v18.75zm18.75 6.25v18.75h-18.75v-18.75zm-18.75-31.25v-18.75h18.75v18.75zm-25-15.625c0-1.7266 1.4023-3.125 3.125-3.125h15.625v18.75h-18.75zm0 21.875h18.75v18.75h-18.75zm0 40.625v-15.625h18.75v18.75h-15.625c-1.7227 0-3.125-1.3984-3.125-3.125zm68.75 0c0 1.7266-1.4023 3.125-3.125 3.125h-15.625v-18.75h18.75zm0-21.875h-18.75v-18.75h18.75zm0-25h-18.75v-18.75h15.625c1.7227 0 3.125 1.3984 3.125 3.125z"/>
</svg>