<svg xmlns="http://www.w3.org/2000/svg" viewBox="18 18 64 64">
  <path d="M77.83,32H65l-1.93-6.75A10,10,0,0,0,53.47,18H46.53a10,10,0,0,0-9.62,7.25L35,32H22.17A4.12,4.12,0,0,0,18,35.61,4,4,0,0,0,22,40h3a8,8,0,0,0,.05.93l3.79,32.23A10,10,0,0,0,38.78,82H61.22a10,10,0,0,0,9.93-8.83l3.79-32.23A8,8,0,0,0,75,40h3a4,4,0,0,0,4-4.39A4.12,4.12,0,0,0,77.83,32ZM44.6,27.45A2,2,0,0,1,46.53,26h6.95a2,2,0,0,1,1.92,1.45L56.7,32H43.3ZM65.47,53l-.94,8L63.21,72.23a2,2,0,0,1-2,1.77H38.78a2,2,0,0,1-2-1.77L35.47,61l-.94-8L33,40H67Z"/>
</svg>